<?xml version="1.0" encoding="utf-8"?>
<!-- Svg Vector Icons : http://www.onlinewebfonts.com/icon -->
<!DOCTYPE svg PUBLIC "-//W3C//DTD SVG 1.1//EN" "http://www.w3.org/Graphics/SVG/1.1/DTD/svg11.dtd">
<svg version="1.1" xmlns="http://www.w3.org/2000/svg" xmlns:xlink="http://www.w3.org/1999/xlink" x="0px" y="0px" viewBox="0 0 1000 1000" enable-background="new 0 0 1000 1000" xml:space="preserve">
<metadata> Svg Vector Icons : http://www.onlinewebfonts.com/icon </metadata>
<g><g transform="translate(0.000000,512.000000) scale(0.100000,-0.100000)"><path d="M3428.5,5010c-708.4-68.9-1332.6-306.3-1876.3-712.2c-180-134-486.3-428.9-633.7-606.9C16.6,2590-155.7,1052.5,480-224.6C975.9-1224,1898.7-1932.4,3007.3-2166c321.7-68.9,875-86.2,1206.2-40.2c436.5,61.3,802.2,180,1212,390.6l245.1,126.4l1545.1-1545.1l1545.1-1545.1l570.6,568.7l568.6,570.6L8354.9-2095.2L6809.8-550.1L6936.2-305c210.6,407.8,325.5,762,390.6,1212c46,323.6,28.7,880.7-38.3,1202.4c-333.1,1575.8-1593,2718.8-3193.6,2893C3920.6,5021.5,3583.6,5025.4,3428.5,5010z M4194.4,4071.9c338.9-53.6,754.4-218.3,1043.5-413.6c1263.7-848.2,1593-2552.2,735.2-3804.4c-398.2-584-995.6-980.3-1707.9-1133.5c-283.4-61.3-798.4-59.3-1085.6,1.9c-953.5,204.9-1725.1,888.4-2029.5,1799.8c-335.1,997.5-68.9,2096.5,681.6,2818.4c247,235.5,457.6,382.9,735.2,513.1C3083.9,4094.8,3612.3,4165.7,4194.4,4071.9z"/></g></g>
</svg>